<svg width="190" height="600" viewBox="0 0 190 600" fill="none" xmlns="http://www.w3.org/2000/svg">
<path d="M108.042 508.225C111.627 498.964 116.208 490.062 121.318 481.541C123.546 477.821 127.211 473.483 129.03 469.842C129.343 469.218 130.068 468.514 129.007 468.206C127.082 467.649 118.875 467.86 116.496 468.029C58.33 472.157 22.932 540.942 -39.2595 525.91C-95.697 512.269 -103.515 442.3 -81.8183 397.057C-60.1478 351.868 -22.648 339.806 10.319 306.924C48.984 268.361 86.722 190.295 64.379 135.911C60.235 125.828 52.591 115.74 43.194 110.139C17.834 95.0207 -12.735 102.812 -36.3029 117.944C-35.5781 120.127 -34.944 122.392 -34.11 124.544C-24.108 150.342 -17.086 171.397 -14.432 199.22C-10.775 237.588 -19.063 290.38 -53.0786 313.828C-74.0623 328.293 -102.356 326.634 -119.144 306.804C-149.087 271.438 -128.781 211.867 -108.205 176.652C-94.0137 152.363 -75.0351 131.408 -52.9665 114.017C-72.9345 74.0572 -101.233 38.9517 -134.729 9.739C-135.216 9.04898 -134.958 8.56428 -134.644 7.90291C-134.267 7.1126 -128.652 0.42483 -127.963 0.133538C-127.121 -0.224608 -127.281 0.226656 -126.897 0.448706C-125.164 1.45151 -121.757 4.8157 -120.033 6.34617C-88.3535 34.494 -62.3056 68.7543 -42.4901 106.267C-41.565 106.479 -29.961 100.037 -27.818 99.0963C24.874 75.972 73.684 95.9972 82.335 155.798C90.357 211.265 55.805 279.95 16.787 317.811C-21.005 354.483 -64.5587 366.523 -78.2037 424.049C-84.9679 452.564 -79.1789 492.791 -51.0686 508.012C0.623993 536.005 39.874 480.858 83.357 463.419C108.96 453.152 143.884 450.8 166.246 469.345C201.559 498.632 195.572 578.727 151.264 597.067C129.546 606.056 109.382 593.462 102.956 571.865C96.786 551.124 100.41 527.952 108.049 508.225H108.042ZM148.962 584.554C182.376 568.582 186.054 501.418 157.941 478.884C156.103 477.41 145.541 470.962 143.822 471.096C143.009 471.16 142.707 471.695 142.215 472.205C138.978 475.567 132.494 486.875 129.886 491.418C118.127 511.909 108.719 538.942 113.537 562.792C117.266 581.254 129.903 593.662 148.96 584.55L148.962 584.554ZM-98.6916 307.766C-79.3839 317.453 -57.971 305.717 -46.1523 289.947C-15.911 249.592 -24.513 182.723 -41.7939 138.659C-43.5249 134.247 -45.0913 129.761 -46.9176 125.388C-47.6806 124.995 -58.8556 134.88 -60.2838 136.157C-95.6469 167.751 -137.195 241.249 -116.225 289.105C-113.24 295.916 -105.356 304.423 -98.6916 307.766Z" fill="#FF4E00" fill-opacity="0.2"/>
</svg>
