<svg width="479" height="864" viewBox="0 0 479 864" fill="none" xmlns="http://www.w3.org/2000/svg">
<path d="M359.168 728.632C364.467 714.971 371.236 701.842 378.786 689.273C382.081 683.786 387.496 677.387 390.185 672.016C390.646 671.097 391.717 670.058 390.15 669.604C387.306 668.783 375.178 669.093 371.662 669.343C285.704 675.432 233.391 776.891 141.486 754.718C58.0822 734.598 46.5288 631.392 78.5922 564.659C110.617 498.006 166.034 480.214 214.752 431.712C271.892 374.832 327.661 259.684 294.643 179.469C288.519 164.597 277.223 149.717 263.337 141.455C225.858 119.155 180.684 130.647 145.855 152.968C146.926 156.187 147.863 159.529 149.096 162.702C163.877 200.755 174.254 231.81 178.175 272.849C183.58 329.443 171.333 407.31 121.064 441.897C90.0539 463.232 48.2412 460.784 23.4326 431.536C-20.8184 379.371 9.19082 291.503 39.5982 239.561C60.5697 203.734 88.6164 172.827 121.229 147.175C91.7205 88.2343 49.9007 36.4538 0.399816 -6.63497C-0.318968 -7.65276 0.0615648 -8.36768 0.52666 -9.34321C1.08336 -10.5089 9.38108 -20.3734 10.3994 -20.803C11.6431 -21.3313 11.4071 -20.6657 11.9743 -20.3382C14.5359 -18.859 19.5709 -13.8969 22.1183 -11.6394C68.9344 29.8787 107.428 80.4125 136.711 135.743C138.079 136.056 155.227 126.555 158.395 125.167C236.263 91.0588 308.395 120.596 321.178 208.802C333.034 290.616 281.973 391.927 224.311 447.771C168.461 501.862 104.098 519.622 83.9337 604.472C73.9377 646.533 82.4926 705.867 124.034 728.318C200.426 769.608 258.429 688.265 322.69 662.542C360.524 647.399 412.136 643.93 445.182 671.284C497.368 714.481 488.521 832.623 423.041 859.673C390.946 872.933 361.148 854.355 351.652 822.501C342.534 791.907 347.889 757.729 359.178 728.632H359.168ZM419.641 841.216C469.018 817.659 474.455 718.591 432.91 685.353C430.193 683.18 414.585 673.668 412.044 673.865C410.843 673.96 410.395 674.749 409.669 675.503C404.885 680.461 395.304 697.14 391.45 703.842C374.072 734.066 360.168 773.939 367.289 809.118C372.8 836.349 391.474 854.651 419.637 841.212L419.641 841.216ZM53.6567 432.955C82.1896 447.243 113.834 429.933 131.299 406.672C175.991 347.147 163.278 248.517 137.74 183.523C135.182 177.014 132.867 170.397 130.168 163.949C129.041 163.368 112.526 177.948 110.416 179.832C58.1562 226.432 -3.24343 334.842 27.7453 405.429C32.1566 415.477 43.8087 428.025 53.6567 432.955Z" fill="#FF4E00" fill-opacity="0.2"/>
</svg>
