<svg width="30" height="30" viewBox="0 0 30 30" fill="none" xmlns="http://www.w3.org/2000/svg">
<path d="M16.875 27.5C14.625 27.5 12.7083 26.7083 11.125 25.125C9.54167 23.5417 8.75 21.625 8.75 19.375V18.6562C6.95833 18.3646 5.46875 17.526 4.28125 16.1406C3.09375 14.7552 2.5 13.125 2.5 11.25V3.75H6.25V2.5H8.75V7.5H6.25V6.25H5V11.25C5 12.625 5.48958 13.8021 6.46875 14.7812C7.44792 15.7604 8.625 16.25 10 16.25C11.375 16.25 12.5521 15.7604 13.5312 14.7812C14.5104 13.8021 15 12.625 15 11.25V6.25H13.75V7.5H11.25V2.5H13.75V3.75H17.5V11.25C17.5 13.125 16.9062 14.7552 15.7188 16.1406C14.5312 17.526 13.0417 18.3646 11.25 18.6562V19.375C11.25 20.9375 11.7969 22.2656 12.8906 23.3594C13.9844 24.4531 15.3125 25 16.875 25C18.4375 25 19.7656 24.4531 20.8594 23.3594C21.9531 22.2656 22.5 20.9375 22.5 19.375V17.2812C21.7708 17.0312 21.1719 16.5833 20.7031 15.9375C20.2344 15.2917 20 14.5625 20 13.75C20 12.7083 20.3646 11.8229 21.0938 11.0938C21.8229 10.3646 22.7083 10 23.75 10C24.7917 10 25.6771 10.3646 26.4062 11.0938C27.1354 11.8229 27.5 12.7083 27.5 13.75C27.5 14.5625 27.2656 15.2917 26.7969 15.9375C26.3281 16.5833 25.7292 17.0312 25 17.2812V19.375C25 21.625 24.2083 23.5417 22.625 25.125C21.0417 26.7083 19.125 27.5 16.875 27.5ZM24.6406 14.6406C24.8802 14.401 25 14.1042 25 13.75C25 13.3958 24.8802 13.099 24.6406 12.8594C24.401 12.6198 24.1042 12.5 23.75 12.5C23.3958 12.5 23.099 12.6198 22.8594 12.8594C22.6198 13.099 22.5 13.3958 22.5 13.75C22.5 14.1042 22.6198 14.401 22.8594 14.6406C23.099 14.8802 23.3958 15 23.75 15C24.1042 15 24.401 14.8802 24.6406 14.6406Z" fill="white"/>
</svg>
