<svg width="30" height="30" viewBox="0 0 30 30" fill="none" xmlns="http://www.w3.org/2000/svg">
<path d="M6.25 25C4.47917 25 2.99479 24.401 1.79688 23.2031C0.598958 22.0052 0 20.5208 0 18.75C0 16.9792 0.609375 15.4948 1.82812 14.2969C3.04688 13.099 4.52083 12.5 6.25 12.5C7.85417 12.5 9.20312 12.9792 10.2969 13.9375C11.3906 14.8958 12.0833 16.0833 12.375 17.5H13.1875L10.9375 11.25H8.75V8.75H15V11.25H13.625L14.0625 12.5H20.0625L18.25 7.5H15V5H18.25C18.7917 5 19.276 5.14583 19.7031 5.4375C20.1302 5.72917 20.4375 6.125 20.625 6.625L22.75 12.4375H23.75C25.4792 12.4375 26.9531 13.0469 28.1719 14.2656C29.3906 15.4844 30 16.9583 30 18.6875C30 20.4375 29.3958 21.9271 28.1875 23.1562C26.9792 24.3854 25.5 25 23.75 25C22.25 25 20.9323 24.5312 19.7969 23.5938C18.6615 22.6562 17.9375 21.4583 17.625 20H12.375C12.0833 21.4375 11.375 22.6302 10.25 23.5781C9.125 24.526 7.79167 25 6.25 25ZM6.25 22.5C7.10417 22.5 7.83854 22.2656 8.45312 21.7969C9.06771 21.3281 9.5 20.7292 9.75 20H6.25V17.5H9.75C9.5 16.75 9.06771 16.1458 8.45312 15.6875C7.83854 15.2292 7.10417 15 6.25 15C5.1875 15 4.29688 15.3594 3.57812 16.0781C2.85938 16.7969 2.5 17.6875 2.5 18.75C2.5 19.7917 2.85938 20.6771 3.57812 21.4062C4.29688 22.1354 5.1875 22.5 6.25 22.5ZM15.875 17.5H17.625C17.7292 17.0208 17.8698 16.5729 18.0469 16.1562C18.224 15.7396 18.4583 15.3542 18.75 15H14.9375L15.875 17.5ZM23.75 22.5C24.8125 22.5 25.7031 22.1354 26.4219 21.4062C27.1406 20.6771 27.5 19.7917 27.5 18.75C27.5 17.6875 27.1406 16.7969 26.4219 16.0781C25.7031 15.3594 24.8125 15 23.75 15H23.625L24.875 18.3125L22.5 19.1875L21.3125 15.875C20.8958 16.2292 20.5729 16.6458 20.3438 17.125C20.1146 17.6042 20 18.1458 20 18.75C20 19.7917 20.3594 20.6771 21.0781 21.4062C21.7969 22.1354 22.6875 22.5 23.75 22.5Z" fill="white"/>
</svg>
