<svg width="30" height="30" viewBox="0 0 30 30" fill="none" xmlns="http://www.w3.org/2000/svg">
<path d="M11.875 27.5C10.6458 27.5 9.60938 27.0781 8.76562 26.2344C7.92188 25.3906 7.5 24.3542 7.5 23.125C7.5 22.9375 7.52604 22.7917 7.57812 22.6875C7.63021 22.5833 7.625 22.5 7.5625 22.4375C7.5 22.375 7.41667 22.3698 7.3125 22.4219C7.20833 22.474 7.0625 22.5 6.875 22.5C5.64583 22.5 4.60938 22.0781 3.76562 21.2344C2.92188 20.3906 2.5 19.3542 2.5 18.125C2.5 16.8958 2.92188 15.8594 3.76562 15.0156C4.60938 14.1719 5.64583 13.75 6.875 13.75C7.35417 13.75 7.79167 13.8125 8.1875 13.9375C8.58333 14.0625 8.95833 14.25 9.3125 14.5L14.5 9.3125C14.25 8.95833 14.0625 8.58333 13.9375 8.1875C13.8125 7.79167 13.75 7.35417 13.75 6.875C13.75 5.64583 14.1719 4.60938 15.0156 3.76562C15.8594 2.92188 16.8958 2.5 18.125 2.5C19.3542 2.5 20.3906 2.92188 21.2344 3.76562C22.0781 4.60938 22.5 5.64583 22.5 6.875C22.5 7.0625 22.474 7.20833 22.4219 7.3125C22.3698 7.41667 22.375 7.5 22.4375 7.5625C22.5 7.625 22.5833 7.63021 22.6875 7.57812C22.7917 7.52604 22.9375 7.5 23.125 7.5C24.3542 7.5 25.3906 7.92188 26.2344 8.76562C27.0781 9.60938 27.5 10.6458 27.5 11.875C27.5 13.1042 27.0781 14.1406 26.2344 14.9844C25.3906 15.8281 24.3542 16.25 23.125 16.25C22.6458 16.25 22.2083 16.1875 21.8125 16.0625C21.4167 15.9375 21.0417 15.75 20.6875 15.5L15.5 20.6875C15.75 21.0417 15.9375 21.4167 16.0625 21.8125C16.1875 22.2083 16.25 22.6458 16.25 23.125C16.25 24.3542 15.8281 25.3906 14.9844 26.2344C14.1406 27.0781 13.1042 27.5 11.875 27.5ZM13.2188 24.4688C13.5729 24.1146 13.75 23.6667 13.75 23.125C13.75 22.9375 13.724 22.7552 13.6719 22.5781C13.6198 22.401 13.5417 22.2292 13.4375 22.0625C13.0833 21.5625 12.9375 21.026 13 20.4531C13.0625 19.8802 13.3125 19.375 13.75 18.9375L18.9375 13.75C19.375 13.3125 19.8802 13.0625 20.4531 13C21.026 12.9375 21.5625 13.0833 22.0625 13.4375C22.2292 13.5417 22.401 13.6198 22.5781 13.6719C22.7552 13.724 22.9375 13.75 23.125 13.75C23.6667 13.75 24.1146 13.5729 24.4688 13.2188C24.8229 12.8646 25 12.4167 25 11.875C25 11.3333 24.8229 10.8854 24.4688 10.5312C24.1146 10.1771 23.6667 10 23.125 10C22.3958 10 21.8854 9.96354 21.5938 9.89062C21.3021 9.81771 21 9.625 20.6875 9.3125C20.375 9 20.1823 8.69792 20.1094 8.40625C20.0365 8.11458 20 7.60417 20 6.875C20 6.33333 19.8229 5.88542 19.4688 5.53125C19.1146 5.17708 18.6667 5 18.125 5C17.5833 5 17.1354 5.17708 16.7812 5.53125C16.4271 5.88542 16.25 6.33333 16.25 6.875C16.25 7.10417 16.2708 7.29688 16.3125 7.45312C16.3542 7.60938 16.4375 7.77083 16.5625 7.9375C16.9167 8.4375 17.0625 8.97396 17 9.54688C16.9375 10.1198 16.6875 10.625 16.25 11.0625L11.0625 16.25C10.625 16.6875 10.1198 16.9375 9.54688 17C8.97396 17.0625 8.4375 16.9167 7.9375 16.5625C7.77083 16.4583 7.59896 16.3802 7.42188 16.3281C7.24479 16.276 7.0625 16.25 6.875 16.25C6.33333 16.25 5.88542 16.4271 5.53125 16.7812C5.17708 17.1354 5 17.5833 5 18.125C5 18.6667 5.17708 19.1146 5.53125 19.4688C5.88542 19.8229 6.33333 20 6.875 20C7.60417 20 8.11458 20.0365 8.40625 20.1094C8.69792 20.1823 9 20.375 9.3125 20.6875C9.625 21 9.81771 21.3021 9.89062 21.5938C9.96354 21.8854 10 22.3958 10 23.125C10 23.6667 10.1771 24.1146 10.5312 24.4688C10.8854 24.8229 11.3333 25 11.875 25C12.4167 25 12.8646 24.8229 13.2188 24.4688Z" fill="white"/>
</svg>
