<svg width="100" height="36" viewBox="0 0 100 36" fill="none" xmlns="http://www.w3.org/2000/svg">
<g clip-path="url(#clip0_255_945)">
<g clip-path="url(#clip1_255_945)">
<path d="M59.028 12.4097C58.4981 12.7662 58.073 13.2877 57.7526 13.974V12.2315H54.7969V26.0703H58.2194V20.4739L58.2072 19.7999C58.2072 17.8668 58.3903 16.5689 58.7565 15.9081C59.1226 15.2463 59.5712 14.9155 60.1011 14.9155C60.3625 14.9155 60.695 15.0169 61.0988 15.2207L62.1719 12.2315C61.6837 11.9938 61.2158 11.875 60.7703 11.875C60.1387 11.875 59.5579 12.0532 59.027 12.4087" fill="white"/>
</g>
<g clip-path="url(#clip2_255_945)">
<path d="M17.8828 0C8.00643 0 0 8.0589 0 18C0 27.9411 8.00643 36 17.8828 36C27.7591 36 35.7656 27.9411 35.7656 18C35.7656 8.0589 27.7591 0 17.8828 0ZM26.3793 23.837C24.9741 25.6638 23.1448 26.8736 20.8895 27.4662V32.4147H17.4822V27.7702C14.8232 27.5501 12.6065 26.4724 10.8311 24.5339C9.05579 22.5964 8.16811 20.2834 8.16811 17.5926C8.16811 14.733 9.15239 12.3136 11.1209 10.3341C13.0895 8.35469 15.4953 7.36498 18.3394 7.36498C21.1834 7.36498 23.5851 8.35469 25.5455 10.3341C27.5049 12.3146 28.4861 14.733 28.4861 17.5926C28.4861 19.9272 27.7835 22.0089 26.3783 23.8359L26.3793 23.837Z" fill="white"/>
<path d="M14.1505 19.4824H11.8535C12.2236 20.7874 12.9181 21.8754 13.936 22.7474C14.9538 23.6204 16.1364 24.1414 17.4827 24.3102V22.8364C17.4827 21.9051 17.1583 21.1129 16.5106 20.4609C15.8628 19.809 15.0759 19.4824 14.1505 19.4824Z" fill="white"/>
<path d="M18.3399 10.7949C16.7414 10.7949 15.3321 11.2841 14.1119 12.2616C12.8918 13.239 12.1058 14.5041 11.752 16.0546H14.1495C16.0337 16.0546 17.6281 16.7107 18.9327 18.0227C20.2362 19.3358 20.889 20.9408 20.889 22.8372V23.8535C22.1509 23.3295 23.1646 22.4974 23.9303 21.3562C24.696 20.215 25.0794 18.9603 25.0794 17.5909C25.0794 15.6974 24.4266 14.0915 23.123 12.7733C21.8184 11.4541 20.2241 10.7949 18.3399 10.7949Z" fill="white"/>
</g>
<g clip-path="url(#clip3_255_945)">
<path d="M46.9543 11.8819C46.1285 11.8819 45.3546 12.0386 44.6305 12.3518C43.9064 12.6651 43.2331 13.136 42.6097 13.7625V6.89844H39.1875V26.0666H42.6097V24.6048C43.283 25.2487 43.9603 25.7124 44.6427 25.997C45.3241 26.2805 46.0614 26.4219 46.8527 26.4219C48.6283 26.4219 50.165 25.7288 51.4617 24.3437C52.7583 22.9576 53.4062 21.2356 53.4062 19.176C53.4062 17.1162 52.7787 15.2909 51.5247 13.9263C50.2698 12.5617 48.7463 11.8799 46.9533 11.8799M48.8917 22.0885C48.1727 22.8593 47.2859 23.2453 46.2333 23.2453C45.1807 23.2453 44.2471 22.8665 43.5311 22.1078C42.8162 21.3493 42.4582 20.3563 42.4582 19.1278C42.4582 17.8994 42.8162 16.9504 43.5311 16.2041C44.2461 15.4578 45.1471 15.0851 46.2333 15.0851C47.3195 15.0851 48.2032 15.4639 48.91 16.2225C49.6179 16.9811 49.9708 17.9536 49.9708 19.1401C49.9708 20.3267 49.6108 21.3176 48.8907 22.0895" fill="white"/>
</g>
<g clip-path="url(#clip4_255_945)">
<path d="M69.6855 11.876C67.6492 11.876 65.9554 12.5734 64.6043 13.9682C63.2532 15.363 62.5781 17.1151 62.5781 19.2257C62.5781 21.3363 63.2552 23.0004 64.6104 24.3686C65.9646 25.7378 67.7193 26.4219 69.8736 26.4219C71.2624 26.4219 72.462 26.174 73.4715 25.6784C74.481 25.1828 75.3483 24.4178 76.0721 23.3834L73.1686 22.0102C72.2434 22.9175 71.1363 23.3702 69.8482 23.3702C68.7716 23.3702 67.885 23.0793 67.1917 22.4997C66.4973 21.919 66.0703 21.1367 65.9097 20.1535H76.98L76.9922 19.492C76.9922 17.2032 76.3151 15.3609 74.9599 13.9672C73.6047 12.5724 71.8459 11.875 69.6835 11.875M66.0622 17.4193C66.4505 16.5632 66.8714 15.9661 67.3269 15.6262C68.0518 15.0834 68.8946 14.812 69.8553 14.812C70.7408 14.812 71.5175 15.0537 72.1885 15.536C72.8585 16.0194 73.3078 16.6472 73.5356 17.4183L66.0622 17.4193Z" fill="white"/>
</g>
<g clip-path="url(#clip5_255_945)">
<path d="M82.9858 7.14062H79.5404V12.2393H77.7734V15.2259H79.5404V26.0703H82.9858V15.2259H85.0312V12.2393H82.9858V7.14062Z" fill="white"/>
</g>
<g clip-path="url(#clip6_255_945)">
<path d="M100 19.4963C100 17.2085 99.3229 15.3671 97.9679 13.974C96.6127 12.5799 94.8541 11.8828 92.6918 11.8828C90.6556 11.8828 88.962 12.5799 87.612 13.974C86.2609 15.3681 85.5859 17.1195 85.5859 19.2291C85.5859 21.3387 86.263 23.002 87.6181 24.3696C88.9722 25.7381 90.7268 26.4219 92.8809 26.4219C94.2695 26.4219 95.4681 26.1741 96.4786 25.6787C97.488 25.1833 98.3541 24.4187 99.0789 23.3849L96.1756 22.0122C95.2495 22.9191 94.1435 23.3716 92.8555 23.3716C91.7789 23.3716 90.8925 23.0809 90.1992 22.5015C89.5048 21.9211 89.0779 21.1391 88.9173 20.1565H99.9868L99.999 19.4952L100 19.4963ZM89.0697 17.4235C89.4581 16.5678 89.879 15.971 90.3344 15.6312C91.0592 15.0887 91.9019 14.8174 92.8626 14.8174C93.748 14.8174 94.5247 15.059 95.1956 15.5411C95.8656 16.0242 96.3149 16.6517 96.5426 17.4225L89.0697 17.4235Z" fill="white"/>
</g>
</g>
<defs>
<clipPath id="clip0_255_945">
<rect width="100" height="36" fill="white"/>
</clipPath>
<clipPath id="clip1_255_945">
<rect width="7.375" height="14.1953" fill="white" transform="translate(54.7969 11.875)"/>
</clipPath>
<clipPath id="clip2_255_945">
<rect width="35.7656" height="36" fill="white"/>
</clipPath>
<clipPath id="clip3_255_945">
<rect width="14.2188" height="19.5234" fill="white" transform="translate(39.1875 6.89844)"/>
</clipPath>
<clipPath id="clip4_255_945">
<rect width="14.4141" height="14.5469" fill="white" transform="translate(62.5781 11.875)"/>
</clipPath>
<clipPath id="clip5_255_945">
<rect width="7.25781" height="18.9297" fill="white" transform="translate(77.7734 7.14062)"/>
</clipPath>
<clipPath id="clip6_255_945">
<rect width="14.4141" height="14.5391" fill="white" transform="translate(85.5859 11.8828)"/>
</clipPath>
</defs>
</svg>
