<svg width="88" height="32" viewBox="0 0 88 32" fill="none" xmlns="http://www.w3.org/2000/svg">
<g clip-path="url(#clip0_420_340)">
<path d="M51.9421 11.0364C51.476 11.353 51.1021 11.8161 50.8203 12.4256V10.8781H48.2207V23.1681H51.2309V18.1981L51.2201 17.5994C51.2201 15.8827 51.3812 14.7301 51.7032 14.1433C52.0252 13.5556 52.4197 13.2617 52.8858 13.2617C53.1157 13.2617 53.4082 13.3518 53.7634 13.5328L54.7071 10.8781C54.2777 10.6671 53.8662 10.5615 53.4744 10.5615C52.9189 10.5615 52.4081 10.7198 51.9412 11.0355" fill="#FF4E00"/>
<path d="M15.7325 0C7.04372 0 0 7.16347 0 16C0 24.8365 7.04372 32 15.7325 32C24.4213 32 31.4651 24.8365 31.4651 16C31.4651 7.16347 24.4213 0 15.7325 0ZM23.2074 21.1884C21.9712 22.8123 20.3618 23.8876 18.3777 24.4144V28.8131H15.3801V24.6846C13.0408 24.489 11.0907 23.531 9.52879 21.8079C7.9669 20.0857 7.18596 18.0297 7.18596 15.6379C7.18596 13.096 8.05188 10.9454 9.78374 9.18588C11.5156 7.42639 13.6321 6.54665 16.1342 6.54665C18.6363 6.54665 20.7492 7.42639 22.4739 9.18588C24.1977 10.9463 25.0609 13.096 25.0609 15.6379C25.0609 17.7131 24.4428 19.5635 23.2065 21.1875L23.2074 21.1884Z" fill="#FF4E00"/>
<path d="M12.4485 17.3184H10.4277C10.7534 18.4783 11.3643 19.4454 12.2598 20.2205C13.1552 20.9965 14.1956 21.4596 15.38 21.6097V20.2997C15.38 19.4718 15.0946 18.7676 14.5248 18.1881C13.955 17.6086 13.2626 17.3184 12.4485 17.3184Z" fill="#FF4E00"/>
<path d="M16.1357 9.5957C14.7294 9.5957 13.4896 10.0306 12.4161 10.8994C11.3426 11.7682 10.6511 12.8927 10.3398 14.271H12.4492C14.1068 14.271 15.5095 14.8541 16.6572 16.0204C17.804 17.1877 18.3783 18.6142 18.3783 20.3V21.2034C19.4885 20.7376 20.3803 19.9979 21.0539 18.9835C21.7275 17.9692 22.0648 16.8538 22.0648 15.6365C22.0648 13.9535 21.4905 12.526 20.3436 11.3543C19.1959 10.1816 17.7933 9.5957 16.1357 9.5957Z" fill="#FF4E00"/>
<path d="M41.3141 10.5625C40.5878 10.5625 39.907 10.7017 39.2701 10.9801C38.6332 11.2585 38.041 11.677 37.4926 12.2338V6.13379H34.4824V23.1682H37.4926V21.8691C38.0848 22.4413 38.6806 22.8534 39.2808 23.1063C39.8802 23.3583 40.5287 23.4839 41.2247 23.4839C42.7866 23.4839 44.1382 22.868 45.2788 21.6371C46.4194 20.4052 46.9892 18.875 46.9892 17.0446C46.9892 15.2141 46.4372 13.592 45.3343 12.3793C44.2304 11.1666 42.8903 10.5607 41.3132 10.5607M43.0183 19.6329C42.3858 20.3179 41.6058 20.6609 40.6799 20.6609C39.754 20.6609 38.9328 20.3243 38.3031 19.6501C37.6742 18.976 37.3593 18.0935 37.3593 17.0018C37.3593 15.9101 37.6742 15.0668 38.3031 14.4035C38.9319 13.7403 39.7245 13.4092 40.6799 13.4092C41.6353 13.4092 42.4126 13.7458 43.0344 14.4199C43.657 15.094 43.9674 15.9583 43.9674 17.0127C43.9674 18.0672 43.6507 18.9478 43.0174 19.6338" fill="#FF4E00"/>
<path d="M61.3261 10.5624C59.5343 10.5624 58.044 11.182 56.8551 12.4211C55.6662 13.6602 55.0723 15.2168 55.0723 17.0918C55.0723 18.9668 55.668 20.4452 56.8605 21.6606C58.052 22.877 59.596 23.4847 61.4916 23.4847C62.7136 23.4847 63.7691 23.2645 64.6574 22.8242C65.5457 22.3839 66.3088 21.7043 66.9457 20.7854L64.3908 19.5654C63.5768 20.3715 62.6026 20.7736 61.4692 20.7736C60.5219 20.7736 59.7418 20.5152 59.1318 20.0003C58.5208 19.4845 58.1451 18.7894 58.0037 17.916H67.7445L67.7553 17.3283C67.7553 15.295 67.1595 13.6584 65.967 12.4202C64.7746 11.1811 63.227 10.5615 61.3243 10.5615M58.1379 15.487C58.4796 14.7264 58.85 14.196 59.2507 13.894C59.8885 13.4118 60.6301 13.1707 61.4755 13.1707C62.2546 13.1707 62.9381 13.3854 63.5285 13.8139C64.118 14.2433 64.5134 14.801 64.7138 15.4861H58.1379V15.487Z" fill="#FF4E00"/>
<path d="M73.0297 6.34863H69.9981V10.8793H68.4434V13.533H69.9981V23.1692H73.0297V13.533H74.8296V10.8793H73.0297V6.34863Z" fill="#FF4E00"/>
<path d="M88.0003 17.3293C88.0003 15.296 87.4045 13.6593 86.2121 12.4211C85.0196 11.182 83.4721 10.5625 81.5693 10.5625C79.7776 10.5625 78.2872 11.182 77.0993 12.4211C75.9104 13.6602 75.3164 15.2168 75.3164 17.0919C75.3164 18.9669 75.9122 20.4453 77.1046 21.6607C78.2962 22.8771 79.8402 23.4848 81.7357 23.4848C82.9577 23.4848 84.0124 23.2646 84.9016 22.8243C85.7899 22.384 86.552 21.7044 87.1898 20.7855L84.635 19.5655C83.82 20.3716 82.8468 20.7737 81.7134 20.7737C80.766 20.7737 79.986 20.5153 79.3759 20.0004C78.7649 19.4845 78.3892 18.7895 78.2479 17.9161H87.9887L87.9994 17.3284L88.0003 17.3293ZM78.382 15.487C78.7238 14.7265 79.0941 14.1961 79.4949 13.8941C80.1327 13.4119 80.8743 13.1708 81.7196 13.1708C82.4988 13.1708 83.1822 13.3855 83.7726 13.814C84.3621 14.2434 84.7575 14.8011 84.9579 15.4861H78.382V15.487Z" fill="#FF4E00"/>
</g>
<defs>
<clipPath id="clip0_420_340">
<rect width="88" height="32" fill="white"/>
</clipPath>
</defs>
</svg>
