<svg width="25" height="25" viewBox="0 0 25 25" fill="none" xmlns="http://www.w3.org/2000/svg">
<path d="M20.0641 14.1307C21.1687 14.1379 22.0699 13.2483 22.0771 12.1438C22.0843 11.0392 21.1948 10.138 20.0902 10.1308C18.9857 10.1236 18.0844 11.0132 18.0772 12.1177C18.07 13.2223 18.9596 14.1235 20.0641 14.1307Z" fill="#FF4E00"/>
<path d="M4.06448 14.0264C5.16903 14.0336 6.07028 13.1441 6.07747 12.0395C6.08467 10.935 5.1951 10.0337 4.09055 10.0265C2.986 10.0193 2.08476 10.9089 2.07756 12.0135C2.07036 13.118 2.95994 14.0193 4.06448 14.0264Z" fill="#FF4E00"/>
<path d="M12.0122 22.0784C13.1167 22.0856 14.018 21.196 14.0252 20.0915C14.0324 18.9869 13.1428 18.0857 12.0382 18.0785C10.9337 18.0713 10.0325 18.9609 10.0253 20.0654C10.0181 21.17 10.9076 22.0712 12.0122 22.0784Z" fill="#FF4E00"/>
<path d="M18.4753 4.34725L14.0424 8.7104L15.4454 10.1358L19.8783 5.77262L18.4753 4.34725Z" fill="#FF4E00"/>
<path d="M8.41254 9.73469L8.72045 10.0567L10.1496 8.65599L6.15602 4.58988L6.14602 4.58981L5.83811 4.2678L4.40896 5.66852L8.40248 9.74463L8.41254 9.73469Z" fill="#FF4E00"/>
<path d="M15.4746 14.0408L14.0555 15.4416L18.0193 19.4775L18.367 19.8298L19.7961 18.4291L15.8323 14.3931L15.4746 14.0408Z" fill="#FF4E00"/>
<path d="M8.65471 14.0064L4.59867 17.99L4.27652 18.3179L5.6773 19.7371L9.73342 15.7434L10.0655 15.4256L8.65471 14.0064Z" fill="#FF4E00"/>
<path d="M12.1164 6.07875C13.221 6.08595 14.1222 5.19637 14.1294 4.09183C14.1366 2.98728 13.2471 2.08604 12.1425 2.07884C11.038 2.07164 10.1367 2.96122 10.1295 4.06576C10.1223 5.17031 11.0119 6.07155 12.1164 6.07875Z" fill="#FF4E00"/>
</svg>
