<svg width="26" height="26" viewBox="0 0 26 26" fill="none" xmlns="http://www.w3.org/2000/svg">
<path d="M5.94907 10.3771L8.9456 10.233L9.42577 20.2215L6.42923 20.3656L5.94907 10.3771ZM5.70898 5.38286L8.70552 5.23881L8.89759 9.23419L5.90105 9.37824L5.70898 5.38286ZM16.2256 15.89L19.2222 15.746L19.4142 19.7413L16.4177 19.8854L16.2256 15.89ZM16.0816 12.8935L19.0781 12.7494L19.1742 14.7471L16.1776 14.8912L16.0816 12.8935ZM11.0873 13.1335L14.0839 12.9895L14.42 19.9814L11.4235 20.1255L11.0873 13.1335ZM10.8953 9.13816L13.8918 8.99411L14.0359 11.9907L11.0393 12.1347L10.8953 9.13816Z" fill="#FF4E00"/>
</svg>
