<svg width="25" height="25" viewBox="0 0 25 25" fill="none" xmlns="http://www.w3.org/2000/svg">
<path d="M3.02324 5.10154L5.02321 5.09197L5.01365 3.092C3.91366 3.09726 3.01798 4.00155 3.02324 5.10154ZM3.0615 13.1014L5.06147 13.0919L5.05191 11.0919L3.05193 11.1015L3.0615 13.1014ZM7.09971 21.0822L9.09969 21.0727L9.09012 19.0727L7.09014 19.0822L7.09971 21.0822ZM3.04237 9.10149L5.04234 9.09193L5.03278 7.09195L3.0328 7.10152L3.04237 9.10149ZM13.0136 3.05374L11.0136 3.0633L11.0231 5.06328L13.0231 5.05372L13.0136 3.05374ZM19.0135 3.02504L19.0231 5.02502L21.023 5.01546C21.0178 3.91547 20.1135 3.01978 19.0135 3.02504ZM5.09973 21.0918L5.09017 19.0918L3.09019 19.1014C3.09545 20.2014 3.99974 21.0971 5.09973 21.0918ZM3.08063 17.1014L5.0806 17.0918L5.07104 15.0919L3.07106 15.1014L3.08063 17.1014ZM9.0136 3.07287L7.01363 3.08243L7.02319 5.08241L9.02317 5.07285L9.0136 3.07287ZM11.0997 21.0631L13.0996 21.0535L13.0901 19.0536L11.0901 19.0631L11.0997 21.0631ZM19.0613 13.0249L21.0613 13.0154L21.0517 11.0154L19.0517 11.025L19.0613 13.0249ZM19.0996 21.0248C20.1996 21.0196 21.0952 20.1153 21.09 19.0153L19.09 19.0249L19.0996 21.0248ZM19.0422 9.02497L21.0422 9.01541L21.0326 7.01543L19.0326 7.025L19.0422 9.02497ZM19.0804 17.0249L21.0804 17.0153L21.0709 15.0153L19.0709 15.0249L19.0804 17.0249ZM15.0996 21.044L17.0996 21.0344L17.09 19.0344L15.0901 19.044L15.0996 21.044ZM15.0231 5.04415L17.0231 5.03459L17.0135 3.03461L15.0135 3.04417L15.0231 5.04415ZM7.08058 17.0823L17.0805 17.0344L17.0326 7.03456L7.03276 7.08239L7.08058 17.0823ZM9.0423 9.0728L15.0422 9.0441L15.0709 15.044L9.07099 15.0727L9.0423 9.0728Z" fill="#FF4E00"/>
</svg>
